<svg viewBox="0 -19 512 512" xmlns="http://www.w3.org/2000/svg" id="fi_1164850"><path d="m444.980469 0-21.023438 94.625-56.238281 26.375h-223.4375l-56.238281-26.375-21.023438-94.625h-67.019531v149.296875l108.5 105.582031 102.964844 219.90625h89.070312l102.964844-219.90625 108.5-105.582031v-149.296875zm-291.523438 151h205.085938l16.917969 93.015625-60.582032 129.390625-58.878906-82.082031-58.878906 82.082031-60.582032-129.390625zm-123.457031-121h12.949219l19.007812 85.527344 62.160157 29.148437-12.910157 70.976563-81.207031-79.023438zm200.542969 414.785156-18.839844-40.234375 44.296875-61.753906 44.296875 61.753906-18.839844 40.234375zm251.457031-308.15625-81.207031 79.023438-12.910157-70.976563 62.160157-29.148437 19.007812-85.527344h12.949219zm0 0"></path></svg>